<svg width="3582" height="1640" xmlns="http://www.w3.org/2000/svg" xmlns:xlink="http://www.w3.org/1999/xlink" xml:space="preserve" overflow="hidden"><defs><clipPath id="clip0"><rect x="350" y="555" width="3582" height="1640"/></clipPath></defs><g clip-path="url(#clip0)" transform="translate(-350 -555)"><path d="M0 0 290.566 95.5766" stroke="#000000" stroke-width="13.75" stroke-miterlimit="8" fill="none" fill-rule="evenodd" transform="matrix(-1 0 0 1 2016.57 1053)"/><path d="M1310 927 1436.11 1211.29" stroke="#000000" stroke-width="13.75" stroke-miterlimit="8" fill="none" fill-rule="evenodd"/><path d="M0 0 283.136 62.8801" stroke="#000000" stroke-width="13.75" stroke-miterlimit="8" fill="none" fill-rule="evenodd" transform="matrix(1 0 0 -1 1440 1210.88)"/><path d="M0 0 222.361 295.656" stroke="#000000" stroke-width="13.75" stroke-miterlimit="8" fill="none" fill-rule="evenodd" transform="matrix(-1 0 0 1 1658.36 916)"/><path d="M1653 916 1723.16 1148.78" stroke="#000000" stroke-width="13.75" stroke-miterlimit="8" fill="none" fill-rule="evenodd"/><path d="M0 0 167.754 216.39" stroke="#000000" stroke-width="13.75" stroke-miterlimit="8" fill="none" fill-rule="evenodd" transform="matrix(-1 0 0 1 2199.75 829)"/><path d="M2032 1053 2163.65 1243.8" stroke="#000000" stroke-width="13.75" stroke-miterlimit="8" fill="none" fill-rule="evenodd"/><path d="M1054 1239.5C1054 1203.33 1083.55 1174 1120 1174 1156.45 1174 1186 1203.33 1186 1239.5 1186 1275.67 1156.45 1305 1120 1305 1083.55 1305 1054 1275.67 1054 1239.5Z" stroke="#000000" stroke-width="10.3125" stroke-miterlimit="8" fill="#00CC99" fill-rule="evenodd"/><text fill="#FFFFFF" font-family="Calibri,Calibri_MSFontService,sans-serif" font-weight="400" font-size="83" transform="matrix(1 0 0 1 1100.38 1267)">a</text><path d="M1599 922.5C1599 886.325 1628.55 857 1665 857 1701.45 857 1731 886.325 1731 922.5 1731 958.675 1701.45 988 1665 988 1628.55 988 1599 958.675 1599 922.5Z" stroke="#000000" stroke-width="10.3125" stroke-miterlimit="8" fill="#00CC99" fill-rule="evenodd"/><text fill="#FFFFFF" font-family="Calibri,Calibri_MSFontService,sans-serif" font-weight="400" font-size="83" transform="matrix(1 0 0 1 1643.33 950)">b</text><path d="M1957 1052C1957 1015.55 1986.33 986 2022.5 986 2058.67 986 2088 1015.55 2088 1052 2088 1088.45 2058.67 1118 2022.5 1118 1986.33 1118 1957 1088.45 1957 1052Z" stroke="#000000" stroke-width="10.3125" stroke-miterlimit="8" fill="#00CC99" fill-rule="evenodd"/><text fill="#FFFFFF" font-family="Calibri,Calibri_MSFontService,sans-serif" font-weight="400" font-size="83" transform="matrix(1 0 0 1 2005.19 1080)">c</text><path d="M2141 837C2141 800.549 2170.33 771 2206.5 771 2242.67 771 2272 800.549 2272 837 2272 873.451 2242.67 903 2206.5 903 2170.33 903 2141 873.451 2141 837Z" stroke="#000000" stroke-width="10.3125" stroke-miterlimit="8" fill="#00CC99" fill-rule="evenodd"/><text fill="#FFFFFF" font-family="Calibri,Calibri_MSFontService,sans-serif" font-weight="400" font-size="83" transform="matrix(1 0 0 1 2185.9 864)">e</text><path d="M1663 1160C1663 1124.1 1692.55 1095 1729 1095 1765.45 1095 1795 1124.1 1795 1160 1795 1195.9 1765.45 1225 1729 1225 1692.55 1225 1663 1195.9 1663 1160Z" stroke="#000000" stroke-width="10.3125" stroke-miterlimit="8" fill="#00CC99" fill-rule="evenodd"/><text fill="#FFFFFF" font-family="Calibri,Calibri_MSFontService,sans-serif" font-weight="400" font-size="83" transform="matrix(1 0 0 1 1707.21 1187)">d</text><path d="M1377 1218C1377 1181.55 1406.55 1152 1443 1152 1479.45 1152 1509 1181.55 1509 1218 1509 1254.45 1479.45 1284 1443 1284 1406.55 1284 1377 1254.45 1377 1218Z" stroke="#000000" stroke-width="10.3125" stroke-miterlimit="8" fill="#00CC99" fill-rule="evenodd"/><text fill="#FFFFFF" font-family="Calibri,Calibri_MSFontService,sans-serif" font-weight="400" font-size="83" transform="matrix(1 0 0 1 1423.26 1246)">g</text><path d="M1251 910C1251 873.549 1280.33 844 1316.5 844 1352.67 844 1382 873.549 1382 910 1382 946.451 1352.67 976 1316.5 976 1280.33 976 1251 946.451 1251 910Z" stroke="#000000" stroke-width="10.3125" stroke-miterlimit="8" fill="#00CC99" fill-rule="evenodd"/><text fill="#FFFFFF" font-family="Calibri,Calibri_MSFontService,sans-serif" font-weight="400" font-size="83" transform="matrix(1 0 0 1 1304.03 937)">f</text><path d="M2105 1234C2105 1197.55 2134.33 1168 2170.5 1168 2206.67 1168 2236 1197.55 2236 1234 2236 1270.45 2206.67 1300 2170.5 1300 2134.33 1300 2105 1270.45 2105 1234Z" stroke="#000000" stroke-width="10.3125" stroke-miterlimit="8" fill="#00CC99" fill-rule="evenodd"/><text fill="#FFFFFF" font-family="Calibri,Calibri_MSFontService,sans-serif" font-weight="400" font-size="83" transform="matrix(1 0 0 1 2148.65 1262)">h</text><path d="M2.02013-6.57151 190.684 51.4253 186.644 64.5683-2.02013 6.57151ZM188.153 36.2622 221.522 68.0975 176.032 75.6912Z" transform="matrix(-1 0 0 1 3553.52 1036)"/><path d="M2853.24 896.105 2941.45 1086.16 2928.98 1091.95 2840.76 901.894ZM2951.03 1074.14 2949.69 1120.24 2913.61 1091.5Z"/><path d="M1.53784-6.7008 191.647 36.9296 188.571 50.3312-1.53784 6.7008ZM188.022 21.9902 223.613 51.3196 178.795 62.1949Z" transform="matrix(1 0 0 -1 2977 1183.32)"/><path d="M5.40232-4.25212 127.462 150.825 116.658 159.329-5.40232 4.25212ZM134.015 136.918 143.32 182.089 101.601 162.431Z" transform="matrix(-1 0 0 1 3158.32 938)"/><path d="M3196.59 886.028 3238.11 1024.72 3224.93 1028.66 3183.41 889.972ZM3249.31 1014.19 3241.38 1059.62 3209.79 1026.02Z"/><path d="M5.51671-4.10262 75.7724 90.3687 64.7389 98.5739-5.51671 4.10262ZM82.7032 76.6468 90.7688 122.055 49.6029 101.262Z" transform="matrix(-1 0 0 1 3696.77 856)"/><path d="M3575.69 1021.14 3647.81 1127.49 3636.43 1135.21 3564.31 1028.86ZM3655.33 1114.08 3661.41 1159.8 3621.19 1137.24Z"/><path d="M2591 1211.5C2591 1175.33 2620.55 1146 2657 1146 2693.45 1146 2723 1175.33 2723 1211.5 2723 1247.67 2693.45 1277 2657 1277 2620.55 1277 2591 1247.67 2591 1211.5Z" stroke="#000000" stroke-width="10.3125" stroke-miterlimit="8" fill="#00CC99" fill-rule="evenodd"/><text fill="#FFFFFF" font-family="Calibri,Calibri_MSFontService,sans-serif" font-weight="400" font-size="83" transform="matrix(1 0 0 1 2637.49 1239)">a</text><path d="M3136 894.5C3136 858.325 3165.55 829 3202 829 3238.45 829 3268 858.325 3268 894.5 3268 930.675 3238.45 960 3202 960 3165.55 960 3136 930.675 3136 894.5Z" stroke="#000000" stroke-width="10.3125" stroke-miterlimit="8" fill="#00CC99" fill-rule="evenodd"/><text fill="#FFFFFF" font-family="Calibri,Calibri_MSFontService,sans-serif" font-weight="400" font-size="83" transform="matrix(1 0 0 1 3180.44 922)">b</text><path d="M3494 1024C3494 987.549 3523.55 958 3560 958 3596.45 958 3626 987.549 3626 1024 3626 1060.45 3596.45 1090 3560 1090 3523.55 1090 3494 1060.45 3494 1024Z" stroke="#000000" stroke-width="10.3125" stroke-miterlimit="8" fill="#00CC99" fill-rule="evenodd"/><text fill="#FFFFFF" font-family="Calibri,Calibri_MSFontService,sans-serif" font-weight="400" font-size="83" transform="matrix(1 0 0 1 3542.3 1052)">c</text><path d="M3678 809C3678 772.549 3707.33 743 3743.5 743 3779.67 743 3809 772.549 3809 809 3809 845.451 3779.67 875 3743.5 875 3707.33 875 3678 845.451 3678 809Z" stroke="#000000" stroke-width="10.3125" stroke-miterlimit="8" fill="#00CC99" fill-rule="evenodd"/><text fill="#FFFFFF" font-family="Calibri,Calibri_MSFontService,sans-serif" font-weight="400" font-size="83" transform="matrix(1 0 0 1 3723.01 837)">e</text><path d="M3200 1132C3200 1096.1 3229.55 1067 3266 1067 3302.45 1067 3332 1096.1 3332 1132 3332 1167.9 3302.45 1197 3266 1197 3229.55 1197 3200 1167.9 3200 1132Z" stroke="#000000" stroke-width="10.3125" stroke-miterlimit="8" fill="#00CC99" fill-rule="evenodd"/><text fill="#FFFFFF" font-family="Calibri,Calibri_MSFontService,sans-serif" font-weight="400" font-size="83" transform="matrix(1 0 0 1 3244.33 1159)">d</text><path d="M2914 1190C2914 1153.55 2943.55 1124 2980 1124 3016.45 1124 3046 1153.55 3046 1190 3046 1226.45 3016.45 1256 2980 1256 2943.55 1256 2914 1226.45 2914 1190Z" stroke="#000000" stroke-width="10.3125" stroke-miterlimit="8" fill="#00CC99" fill-rule="evenodd"/><text fill="#FFFFFF" font-family="Calibri,Calibri_MSFontService,sans-serif" font-weight="400" font-size="83" transform="matrix(1 0 0 1 2960.37 1218)">g</text><path d="M2788 882C2788 845.549 2817.55 816 2854 816 2890.45 816 2920 845.549 2920 882 2920 918.451 2890.45 948 2854 948 2817.55 948 2788 918.451 2788 882Z" stroke="#000000" stroke-width="10.3125" stroke-miterlimit="8" fill="#00CC99" fill-rule="evenodd"/><text fill="#FFFFFF" font-family="Calibri,Calibri_MSFontService,sans-serif" font-weight="400" font-size="83" transform="matrix(1 0 0 1 2841.14 909)">f</text><path d="M3642 1206C3642 1169.55 3671.33 1140 3707.5 1140 3743.67 1140 3773 1169.55 3773 1206 3773 1242.45 3743.67 1272 3707.5 1272 3671.33 1272 3642 1242.45 3642 1206Z" stroke="#000000" stroke-width="10.3125" stroke-miterlimit="8" fill="#00CC99" fill-rule="evenodd"/><text fill="#FFFFFF" font-family="Calibri,Calibri_MSFontService,sans-serif" font-weight="400" font-size="83" transform="matrix(1 0 0 1 3685.76 1234)">h</text><path d="M0 0 290.566 95.5766" stroke="#000000" stroke-width="20.625" stroke-miterlimit="8" fill="none" fill-rule="evenodd" transform="matrix(-1 0 0 1 2035.07 1803.5)"/><path d="M1329.5 1678.5 1455.61 1962.79" stroke="#000000" stroke-width="20.625" stroke-miterlimit="8" fill="none" fill-rule="evenodd"/><path d="M0 0 283.136 62.8801" stroke="#000000" stroke-width="27.5" stroke-miterlimit="8" fill="none" fill-rule="evenodd" transform="matrix(1 0 0 -1 1458 1961.88)"/><path d="M0 0 222.361 295.656" stroke="#000000" stroke-width="10.3125" stroke-miterlimit="8" fill="none" fill-rule="evenodd" transform="matrix(-1 0 0 1 1677.36 1666)"/><path d="M1671 1666 1741.16 1898.78" stroke="#000000" stroke-width="13.75" stroke-miterlimit="8" fill="none" fill-rule="evenodd"/><path d="M0 0 167.754 216.39" stroke="#000000" stroke-width="10.3125" stroke-miterlimit="8" fill="none" fill-rule="evenodd" transform="matrix(-1 0 0 1 2218.75 1580)"/><path d="M2051 1803 2182.65 1993.8" stroke="#000000" stroke-width="13.75" stroke-miterlimit="8" fill="none" fill-rule="evenodd"/><path d="M1073 1990C1073 1953.55 1102.55 1924 1139 1924 1175.45 1924 1205 1953.55 1205 1990 1205 2026.45 1175.45 2056 1139 2056 1102.55 2056 1073 2026.45 1073 1990Z" stroke="#000000" stroke-width="10.3125" stroke-miterlimit="8" fill="#00CC99" fill-rule="evenodd"/><text fill="#FFFFFF" font-family="Calibri,Calibri_MSFontService,sans-serif" font-weight="400" font-size="83" transform="matrix(1 0 0 1 1119.07 2018)">a</text><path d="M1618 1673C1618 1636.55 1647.55 1607 1684 1607 1720.45 1607 1750 1636.55 1750 1673 1750 1709.45 1720.45 1739 1684 1739 1647.55 1739 1618 1709.45 1618 1673Z" stroke="#000000" stroke-width="10.3125" stroke-miterlimit="8" fill="#00CC99" fill-rule="evenodd"/><text fill="#FFFFFF" font-family="Calibri,Calibri_MSFontService,sans-serif" font-weight="400" font-size="83" transform="matrix(1 0 0 1 1662.03 1701)">b</text><path d="M1976 1803C1976 1766.55 2005.33 1737 2041.5 1737 2077.67 1737 2107 1766.55 2107 1803 2107 1839.45 2077.67 1869 2041.5 1869 2005.33 1869 1976 1839.45 1976 1803Z" stroke="#000000" stroke-width="10.3125" stroke-miterlimit="8" fill="#00CC99" fill-rule="evenodd"/><text fill="#FFFFFF" font-family="Calibri,Calibri_MSFontService,sans-serif" font-weight="400" font-size="83" transform="matrix(1 0 0 1 2023.88 1830)">c</text><path d="M2159 1587.5C2159 1551.33 2188.55 1522 2225 1522 2261.45 1522 2291 1551.33 2291 1587.5 2291 1623.67 2261.45 1653 2225 1653 2188.55 1653 2159 1623.67 2159 1587.5Z" stroke="#000000" stroke-width="10.3125" stroke-miterlimit="8" fill="#00CC99" fill-rule="evenodd"/><text fill="#FFFFFF" font-family="Calibri,Calibri_MSFontService,sans-serif" font-weight="400" font-size="83" transform="matrix(1 0 0 1 2204.59 1615)">e</text><path d="M1682 1910.5C1682 1874.33 1711.55 1845 1748 1845 1784.45 1845 1814 1874.33 1814 1910.5 1814 1946.67 1784.45 1976 1748 1976 1711.55 1976 1682 1946.67 1682 1910.5Z" stroke="#000000" stroke-width="10.3125" stroke-miterlimit="8" fill="#00CC99" fill-rule="evenodd"/><text fill="#FFFFFF" font-family="Calibri,Calibri_MSFontService,sans-serif" font-weight="400" font-size="83" transform="matrix(1 0 0 1 1725.91 1938)">d</text><path d="M1396 1969C1396 1932.55 1425.33 1903 1461.5 1903 1497.67 1903 1527 1932.55 1527 1969 1527 2005.45 1497.67 2035 1461.5 2035 1425.33 2035 1396 2005.45 1396 1969Z" stroke="#000000" stroke-width="10.3125" stroke-miterlimit="8" fill="#00CC99" fill-rule="evenodd"/><text fill="#FFFFFF" font-family="Calibri,Calibri_MSFontService,sans-serif" font-weight="400" font-size="83" transform="matrix(1 0 0 1 1441.96 1996)">g</text><path d="M1270 1660.5C1270 1624.33 1299.33 1595 1335.5 1595 1371.67 1595 1401 1624.33 1401 1660.5 1401 1696.67 1371.67 1726 1335.5 1726 1299.33 1726 1270 1696.67 1270 1660.5Z" stroke="#000000" stroke-width="10.3125" stroke-miterlimit="8" fill="#00CC99" fill-rule="evenodd"/><text fill="#FFFFFF" font-family="Calibri,Calibri_MSFontService,sans-serif" font-weight="400" font-size="83" transform="matrix(1 0 0 1 1322.73 1688)">f</text><path d="M2123 1985C2123 1948.55 2152.55 1919 2189 1919 2225.45 1919 2255 1948.55 2255 1985 2255 2021.45 2225.45 2051 2189 2051 2152.55 2051 2123 2021.45 2123 1985Z" stroke="#000000" stroke-width="10.3125" stroke-miterlimit="8" fill="#00CC99" fill-rule="evenodd"/><text fill="#FFFFFF" font-family="Calibri,Calibri_MSFontService,sans-serif" font-weight="400" font-size="83" transform="matrix(1 0 0 1 2167.35 2012)">h</text><text font-family="Arial,Arial_MSFontService,sans-serif" font-weight="700" font-size="55" transform="matrix(1 0 0 1 1523.84 1813)">1</text><text font-family="Arial,Arial_MSFontService,sans-serif" font-weight="700" font-size="55" transform="matrix(1 0 0 1 2095.28 1690)">1</text><text font-family="Arial,Arial_MSFontService,sans-serif" font-weight="700" font-size="55" transform="matrix(1 0 0 1 1741.03 1813)">2</text><text font-family="Arial,Arial_MSFontService,sans-serif" font-weight="700" font-size="55" transform="matrix(1 0 0 1 2128.17 1902)">2</text><text font-family="Arial,Arial_MSFontService,sans-serif" font-weight="700" font-size="55" transform="matrix(1 0 0 1 1889.98 1913)">3</text><text font-family="Arial,Arial_MSFontService,sans-serif" font-weight="700" font-size="55" transform="matrix(1 0 0 1 1339.9 1849)">3</text><text font-family="Arial,Arial_MSFontService,sans-serif" font-weight="700" font-size="55" transform="matrix(1 0 0 1 1589.78 1996)">4</text><path d="M3.65295-9.64384 185.491 59.2339 178.186 78.5216-3.65295 9.64384ZM183.154 36.2933 230.058 87.1425 161.236 94.1564Z" transform="matrix(-1 0 0 1 3552.56 1822.5)"/><path d="M2866.98 1693.44 2943.67 1872.62 2924.71 1880.73 2848.02 1701.56ZM2958.57 1855.02 2954.47 1924.08 2901.69 1879.37Z"/><path d="M3.07569-13.4016 159.681 22.5396 153.53 49.3428-3.07569 13.4016ZM152.431-7.33928 223.613 51.3196 133.977 73.0703Z" transform="matrix(1 0 0 -1 2968 1990.32)"/><path d="M4.15832-3.04881 122.384 158.201 114.067 164.299-4.15832 3.04881ZM127.652 147.945 133.47 182.041 102.702 166.238Z" transform="matrix(-1 0 0 1 3156.47 1743)"/><path d="M3210.71 1695.5 3240.78 1829.61 3227.36 1832.61 3197.29 1698.5ZM3252.69 1819.89 3241.59 1864.65 3212.44 1828.91Z"/><path d="M4.14222-3.07066 119.8 152.948 111.516 159.089-4.14222 3.07066ZM125.014 142.664 131.011 176.73 100.161 161.088Z" transform="matrix(-1 0 0 1 3738.01 1603)"/><path d="M3612.86 1869.4 3649.51 1928.99 3637.8 1936.19 3601.14 1876.6ZM3657.62 1915.93 3661.67 1961.87 3622.49 1937.54Z"/><path d="M2592 2013.5C2592 1977.33 2621.55 1948 2658 1948 2694.45 1948 2724 1977.33 2724 2013.5 2724 2049.67 2694.45 2079 2658 2079 2621.55 2079 2592 2049.67 2592 2013.5Z" stroke="#000000" stroke-width="10.3125" stroke-miterlimit="8" fill="#00CC99" fill-rule="evenodd"/><text fill="#FFFFFF" font-family="Calibri,Calibri_MSFontService,sans-serif" font-weight="400" font-size="83" transform="matrix(1 0 0 1 2638.33 2041)">a</text><path d="M3137 1696.5C3137 1660.33 3166.55 1631 3203 1631 3239.45 1631 3269 1660.33 3269 1696.5 3269 1732.67 3239.45 1762 3203 1762 3166.55 1762 3137 1732.67 3137 1696.5Z" stroke="#000000" stroke-width="10.3125" stroke-miterlimit="8" fill="#00CC99" fill-rule="evenodd"/><text fill="#FFFFFF" font-family="Calibri,Calibri_MSFontService,sans-serif" font-weight="400" font-size="83" transform="matrix(1 0 0 1 3181.28 1724)">b</text><path d="M3495 1826C3495 1789.55 3524.33 1760 3560.5 1760 3596.67 1760 3626 1789.55 3626 1826 3626 1862.45 3596.67 1892 3560.5 1892 3524.33 1892 3495 1862.45 3495 1826Z" stroke="#000000" stroke-width="10.3125" stroke-miterlimit="8" fill="#00CC99" fill-rule="evenodd"/><text fill="#FFFFFF" font-family="Calibri,Calibri_MSFontService,sans-serif" font-weight="400" font-size="83" transform="matrix(1 0 0 1 3543.14 1854)">c</text><path d="M3679 1611C3679 1574.55 3708.33 1545 3744.5 1545 3780.67 1545 3810 1574.55 3810 1611 3810 1647.45 3780.67 1677 3744.5 1677 3708.33 1677 3679 1647.45 3679 1611Z" stroke="#000000" stroke-width="10.3125" stroke-miterlimit="8" fill="#00CC99" fill-rule="evenodd"/><text fill="#FFFFFF" font-family="Calibri,Calibri_MSFontService,sans-serif" font-weight="400" font-size="83" transform="matrix(1 0 0 1 3723.85 1639)">e</text><path d="M3191 1939C3191 1903.1 3220.55 1874 3257 1874 3293.45 1874 3323 1903.1 3323 1939 3323 1974.9 3293.45 2004 3257 2004 3220.55 2004 3191 1974.9 3191 1939Z" stroke="#000000" stroke-width="10.3125" stroke-miterlimit="8" fill="#00CC99" fill-rule="evenodd"/><text fill="#FFFFFF" font-family="Calibri,Calibri_MSFontService,sans-serif" font-weight="400" font-size="83" transform="matrix(1 0 0 1 3235.26 1967)">d</text><path d="M2915 1992C2915 1955.55 2944.55 1926 2981 1926 3017.45 1926 3047 1955.55 3047 1992 3047 2028.45 3017.45 2058 2981 2058 2944.55 2058 2915 2028.45 2915 1992Z" stroke="#000000" stroke-width="10.3125" stroke-miterlimit="8" fill="#00CC99" fill-rule="evenodd"/><text fill="#FFFFFF" font-family="Calibri,Calibri_MSFontService,sans-serif" font-weight="400" font-size="83" transform="matrix(1 0 0 1 2961.21 2020)">g</text><path d="M2789 1684C2789 1647.55 2818.33 1618 2854.5 1618 2890.67 1618 2920 1647.55 2920 1684 2920 1720.45 2890.67 1750 2854.5 1750 2818.33 1750 2789 1720.45 2789 1684Z" stroke="#000000" stroke-width="10.3125" stroke-miterlimit="8" fill="#00CC99" fill-rule="evenodd"/><text fill="#FFFFFF" font-family="Calibri,Calibri_MSFontService,sans-serif" font-weight="400" font-size="83" transform="matrix(1 0 0 1 2841.98 1712)">f</text><path d="M3643 2008C3643 1971.55 3672.33 1942 3708.5 1942 3744.67 1942 3774 1971.55 3774 2008 3774 2044.45 3744.67 2074 3708.5 2074 3672.33 2074 3643 2044.45 3643 2008Z" stroke="#000000" stroke-width="10.3125" stroke-miterlimit="8" fill="#00CC99" fill-rule="evenodd"/><text fill="#FFFFFF" font-family="Calibri,Calibri_MSFontService,sans-serif" font-weight="400" font-size="83" transform="matrix(1 0 0 1 3686.6 2036)">h</text><text font-family="Arial,Arial_MSFontService,sans-serif" font-weight="700" font-size="55" transform="matrix(1 0 0 1 3046.63 1828)">1</text><text font-family="Arial,Arial_MSFontService,sans-serif" font-weight="700" font-size="55" transform="matrix(1 0 0 1 3618.07 1706)">1</text><text font-family="Arial,Arial_MSFontService,sans-serif" font-weight="700" font-size="55" transform="matrix(1 0 0 1 3263.82 1828)">2</text><text font-family="Arial,Arial_MSFontService,sans-serif" font-weight="700" font-size="55" transform="matrix(1 0 0 1 3650.96 1917)">2</text><text font-family="Arial,Arial_MSFontService,sans-serif" font-weight="700" font-size="55" transform="matrix(1 0 0 1 3424.08 1926)">3</text><text font-family="Arial,Arial_MSFontService,sans-serif" font-weight="700" font-size="55" transform="matrix(1 0 0 1 2862.69 1865)">3</text><text font-family="Arial,Arial_MSFontService,sans-serif" font-weight="700" font-size="55" transform="matrix(1 0 0 1 3112.57 2041)">4</text><text font-family="Calibri,Calibri_MSFontService,sans-serif" font-weight="700" font-size="92" transform="matrix(1 0 0 1 419.071 1090)">unweigthed</text><text font-family="Calibri,Calibri_MSFontService,sans-serif" font-weight="700" font-size="92" transform="matrix(1 0 0 1 405.892 1818)">weigthed</text><text font-family="Calibri,Calibri_MSFontService,sans-serif" font-weight="700" font-size="92" transform="matrix(1 0 0 1 1453.1 669)">undirected</text><text font-family="Calibri,Calibri_MSFontService,sans-serif" font-weight="700" font-size="92" transform="matrix(1 0 0 1 3075.17 669)">directed</text><path d="M926 1427 3930.29 1427" stroke="#BFBFBF" stroke-width="2.29167" stroke-miterlimit="8" fill="none" fill-rule="evenodd"/><path d="M2464.59 2194.44 2460 743" stroke="#BFBFBF" stroke-width="2.29167" stroke-miterlimit="8" fill="none" fill-rule="evenodd"/></g></svg>