<svg width="2443" height="1268" xmlns="http://www.w3.org/2000/svg" xmlns:xlink="http://www.w3.org/1999/xlink" xml:space="preserve" overflow="hidden"><defs><clipPath id="clip0"><rect x="1262" y="535" width="2443" height="1268"/></clipPath></defs><g clip-path="url(#clip0)" transform="translate(-1262 -535)"><path d="M0 0 290.566 95.5766" stroke="#000000" stroke-width="13.75" stroke-miterlimit="8" fill="none" fill-rule="evenodd" transform="matrix(-1 0 0 1 1880.57 1053)"/><path d="M0 0 283.136 62.8801" stroke="#000000" stroke-width="13.75" stroke-miterlimit="8" fill="none" fill-rule="evenodd" transform="matrix(1 0 0 -1 1304 1210.88)"/><path d="M1517 915 1587.16 1147.78" stroke="#000000" stroke-width="13.75" stroke-miterlimit="8" fill="none" fill-rule="evenodd"/><path d="M1527 1159.5C1527 1123.33 1556.55 1094 1593 1094 1629.45 1094 1659 1123.33 1659 1159.5 1659 1195.67 1629.45 1225 1593 1225 1556.55 1225 1527 1195.67 1527 1159.5Z" stroke="#000000" stroke-width="10.3125" stroke-miterlimit="8" fill="#00CC99" fill-rule="evenodd"/><text fill="#FFFFFF" font-family="Calibri,Calibri_MSFontService,sans-serif" font-weight="400" font-size="83" transform="matrix(1 0 0 1 1573.33 1187)">a</text><text font-family="Calibri,Calibri_MSFontService,sans-serif" font-weight="700" font-size="92" transform="matrix(1 0 0 1 1395.83 669)">undirected</text><text font-family="Calibri,Calibri_MSFontService,sans-serif" font-weight="700" font-size="92" transform="matrix(1 0 0 1 3026.96 649)">directed</text><path d="M2478.84 1665.15 2460 743" stroke="#BFBFBF" stroke-width="2.29167" stroke-miterlimit="8" fill="none" fill-rule="evenodd"/><text font-family="Calibri,Calibri_MSFontService,sans-serif" font-weight="400" font-size="92" transform="matrix(1 0 0 1 1317.18 1432)">degree</text><path d="M1620.67 1367.83 1623.28 1367.83 1614.47 1407.04 1615.91 1407.04C1618.16 1407.04 1620.68 1406.06 1623.48 1404.1 1626.28 1402.14 1628.52 1400.32 1630.2 1398.64 1631.87 1396.97 1632.71 1395.35 1632.71 1393.79 1632.71 1392.32 1631.69 1391.5 1629.66 1391.32L1630.15 1389.12 1644.71 1389.12 1645.56 1391.32C1643.07 1393.57 1640.44 1395.77 1637.65 1397.92L1626.51 1406.55 1630.91 1422.77C1631.27 1424.14 1631.6 1425.14 1631.88 1425.75 1632.17 1426.37 1632.49 1426.82 1632.87 1427.12 1633.24 1427.42 1633.74 1427.57 1634.37 1427.57 1635.15 1427.57 1636.08 1427.15 1637.16 1426.32 1638.24 1425.48 1639.47 1424.26 1640.84 1422.68L1643.4 1425.19C1640.71 1428.04 1638.48 1430.01 1636.71 1431.12 1634.94 1432.23 1633.24 1432.78 1631.59 1432.78 1629.55 1432.78 1627.94 1432.21 1626.74 1431.05 1625.54 1429.9 1624.6 1427.98 1623.91 1425.28L1620.94 1413.6C1620.64 1412.43 1620.34 1411.63 1620.04 1411.18 1619.74 1410.73 1619.4 1410.43 1619.01 1410.28 1618.62 1410.13 1617.93 1410.05 1616.94 1410.05L1613.84 1410.05 1609.17 1432.07 1601.4 1432.07 1612.95 1380.72C1613.34 1378.98 1613.61 1377.63 1613.78 1376.65 1613.94 1375.68 1614.02 1374.82 1614.02 1374.07 1614.02 1372.81 1613.64 1371.93 1612.88 1371.42 1612.12 1370.91 1610.74 1370.63 1608.77 1370.57L1609.31 1368.23Z" fill-rule="evenodd"/><text fill="#000000" fill-opacity="0" font-family="Arial,Arial_MSFontService,sans-serif" font-size="64.957" x="1601.4" y="1424.66">ğ‘˜</text><path d="M1670.75 1420.6C1669.46 1420.6 1668.26 1420.89 1667.15 1421.45 1666.04 1422.02 1665.02 1422.79 1664.11 1423.78 1663.19 1424.76 1662.38 1425.89 1661.67 1427.18 1660.96 1428.46 1660.36 1429.83 1659.87 1431.27 1659.38 1432.71 1659.01 1434.18 1658.76 1435.7 1658.51 1437.22 1658.38 1438.67 1658.38 1440.07 1658.38 1442.42 1658.72 1444.17 1659.38 1445.32 1660.05 1446.46 1661.12 1447.04 1662.6 1447.04 1663.34 1447.04 1664.06 1446.91 1664.75 1446.64 1665.43 1446.38 1666.16 1445.97 1666.92 1445.4 1668.84 1443.9 1670.48 1442.06 1671.83 1439.9 1673.18 1437.74 1674.2 1435.19 1674.87 1432.25 1675.18 1430.9 1675.42 1429.68 1675.59 1428.58 1675.77 1427.49 1675.85 1426.46 1675.85 1425.48 1675.85 1423.73 1675.44 1422.48 1674.63 1421.73 1673.81 1420.98 1672.52 1420.6 1670.75 1420.6ZM1670.16 1417.36C1671.88 1417.36 1673.4 1417.57 1674.72 1417.97 1676.04 1418.37 1677.25 1418.92 1678.34 1419.62L1681.51 1417.36 1684.16 1418.05 1679.22 1439.48C1678.94 1440.7 1678.74 1441.71 1678.63 1442.51 1678.52 1443.3 1678.47 1444 1678.47 1444.62 1678.47 1445.44 1678.64 1446.04 1678.98 1446.41 1679.31 1446.79 1679.8 1446.97 1680.43 1446.97 1680.83 1446.97 1681.21 1446.89 1681.59 1446.74 1681.98 1446.59 1682.39 1446.35 1682.84 1446.02 1683.28 1445.69 1683.78 1445.27 1684.31 1444.76 1684.84 1444.25 1685.45 1443.63 1686.13 1442.91 1686.47 1443.28 1686.83 1443.65 1687.2 1444.01 1687.58 1444.37 1687.94 1444.72 1688.28 1445.07 1687.19 1446.19 1686.2 1447.14 1685.31 1447.94 1684.41 1448.73 1683.55 1449.39 1682.71 1449.9 1681.87 1450.41 1681.04 1450.78 1680.24 1451.01 1679.43 1451.24 1678.59 1451.35 1677.72 1451.35 1676.15 1451.35 1674.93 1450.85 1674.05 1449.83 1673.18 1448.82 1672.74 1447.43 1672.74 1445.66 1672.74 1444.68 1672.9 1443.74 1673.2 1442.85L1672.74 1442.65C1671.63 1444.2 1670.55 1445.52 1669.51 1446.61 1668.46 1447.7 1667.42 1448.6 1666.4 1449.31 1665.37 1450.02 1664.34 1450.54 1663.29 1450.86 1662.24 1451.19 1661.15 1451.35 1660.02 1451.35 1657.42 1451.35 1655.42 1450.42 1654 1448.56 1652.58 1446.69 1651.87 1443.98 1651.87 1440.43 1651.87 1438.31 1652.1 1436.28 1652.54 1434.33 1652.99 1432.37 1653.62 1430.54 1654.44 1428.83 1655.26 1427.12 1656.23 1425.56 1657.37 1424.15 1658.5 1422.75 1659.75 1421.54 1661.1 1420.54 1662.45 1419.53 1663.89 1418.75 1665.42 1418.2 1666.94 1417.64 1668.52 1417.36 1670.16 1417.36Z" fill-rule="evenodd"/><text fill="#000000" fill-opacity="0" font-family="Arial,Arial_MSFontService,sans-serif" font-size="33.9907" x="1651.87" y="1447.11">ğ‘</text><path d="M1727.09 1412.12 1782.44 1412.12 1782.44 1418.09 1727.09 1418.09ZM1727.09 1393.48 1782.44 1393.48 1782.44 1399.45 1727.09 1399.45Z" fill-rule="evenodd"/><text fill="#000000" fill-opacity="0" font-family="Arial,Arial_MSFontService,sans-serif" font-size="24.6172" x="1727.09" y="1415.02">=</text><text font-family="Calibri,Calibri_MSFontService,sans-serif" font-weight="400" font-size="92" transform="matrix(1 0 0 1 1809.77 1432)">3</text><path d="M2.18303-6.5192 216.346 65.1959 211.98 78.2343-2.18303 6.5192ZM214.193 49.9745 246.759 82.6303 201.095 89.0897Z" transform="matrix(1 0 0 -1 3167 1140.63)"/><path d="M1.53784-6.7008 191.647 36.9296 188.571 50.3312-1.53784 6.7008ZM188.022 21.9902 223.613 51.3196 178.795 62.1949Z" transform="matrix(1 0 0 -1 2802 1232.32)"/><path d="M3025.59 918.028 3067.11 1056.72 3053.94 1060.66 3012.41 921.972ZM3078.31 1046.19 3070.38 1091.62 3038.79 1058.02Z"/><path d="M3029 1164.5C3029 1128.33 3058.55 1099 3095 1099 3131.45 1099 3161 1128.33 3161 1164.5 3161 1200.67 3131.45 1230 3095 1230 3058.55 1230 3029 1200.67 3029 1164.5Z" stroke="#000000" stroke-width="10.3125" stroke-miterlimit="8" fill="#00CC99" fill-rule="evenodd"/><text fill="#FFFFFF" font-family="Calibri,Calibri_MSFontService,sans-serif" font-weight="400" font-size="83" transform="matrix(1 0 0 1 3075.4 1192)">a</text><text font-family="Calibri,Calibri_MSFontService,sans-serif" font-weight="400" font-size="92" transform="matrix(1 0 0 1 2835.02 1429)">in</text><text font-family="Calibri,Calibri_MSFontService,sans-serif" font-weight="400" font-size="92" transform="matrix(1 0 0 1 2904.34 1429)">-</text><text font-family="Calibri,Calibri_MSFontService,sans-serif" font-weight="400" font-size="92" transform="matrix(1 0 0 1 2932.42 1429)">degree</text><path d="M3226.16 1364.29 3228.85 1364.29 3228.85 1403.55 3230.29 1403.55C3231.28 1403.55 3232.09 1403.45 3232.72 1403.24 3233.47 1402.97 3234.29 1402.51 3235.19 1401.87 3236.09 1401.22 3237.36 1400.14 3239.01 1398.61 3240.38 1397.32 3241.42 1396.23 3242.13 1395.33 3242.83 1394.43 3243.32 1393.61 3243.59 1392.86 3243.83 1392.23 3243.95 1391.6 3243.95 1390.97 3243.95 1390.07 3243.67 1389.37 3243.12 1388.86 3242.56 1388.35 3241.66 1388.01 3240.4 1387.83L3240.4 1385.63 3259.76 1385.63 3259.76 1387.83C3258.38 1388.1 3256.92 1388.71 3255.36 1389.67 3253.8 1390.63 3252.2 1391.89 3250.55 1393.44L3240.22 1403.24 3253.16 1420.13C3254.65 1422.1 3256.01 1423.56 3257.22 1424.51 3258.44 1425.45 3259.76 1426.07 3261.2 1426.37L3261.2 1428.57 3243.95 1428.57 3243.95 1426.37C3244.73 1426.28 3245.3 1426.11 3245.68 1425.85 3246.05 1425.6 3246.24 1425.17 3246.24 1424.57 3246.24 1424.13 3246.16 1423.68 3245.99 1423.25 3245.83 1422.81 3245.49 1422.22 3244.98 1421.47 3244.47 1420.73 3243.54 1419.42 3242.2 1417.57L3236.85 1410.38C3235.83 1409.03 3235.11 1408.15 3234.67 1407.73 3234.24 1407.31 3233.78 1407.01 3233.3 1406.83 3232.82 1406.65 3232.18 1406.56 3231.37 1406.56L3228.85 1406.56 3228.85 1417.34C3228.85 1419.92 3228.97 1421.71 3229.21 1422.71 3229.45 1423.71 3229.91 1424.48 3230.58 1425 3231.26 1425.53 3232.36 1425.98 3233.89 1426.37L3233.89 1428.57 3216.05 1428.57 3216.05 1426.37C3217.55 1425.98 3218.59 1425.58 3219.17 1425.16 3219.76 1424.74 3220.18 1424.24 3220.43 1423.65 3220.69 1423.07 3220.87 1422.28 3220.97 1421.27 3221.07 1420.27 3221.13 1418.96 3221.13 1417.34L3221.13 1379.74C3221.13 1376.87 3221.1 1374.86 3221.06 1373.72 3221.02 1372.58 3220.9 1371.62 3220.7 1370.83 3220.51 1370.03 3220.24 1369.41 3219.89 1368.96 3219.55 1368.51 3219.08 1368.15 3218.5 1367.88 3217.92 1367.61 3216.86 1367.34 3215.33 1367.07L3215.33 1364.74Z" fill-rule="evenodd"/><text fill="#000000" fill-opacity="0" font-family="Arial,Arial_MSFontService,sans-serif" font-size="64.2832" x="3215.33" y="1420.54">k</text><path d="M3287.27 1417.11C3285.98 1417.11 3284.78 1417.39 3283.67 1417.96 3282.56 1418.53 3281.54 1419.3 3280.63 1420.28 3279.71 1421.26 3278.9 1422.4 3278.19 1423.69 3277.48 1424.97 3276.88 1426.33 3276.39 1427.77 3275.9 1429.21 3275.53 1430.69 3275.28 1432.21 3275.03 1433.72 3274.9 1435.18 3274.9 1436.57 3274.9 1438.93 3275.23 1440.68 3275.9 1441.83 3276.56 1442.97 3277.64 1443.54 3279.12 1443.54 3279.86 1443.54 3280.58 1443.41 3281.26 1443.15 3281.95 1442.89 3282.68 1442.47 3283.44 1441.91 3285.36 1440.4 3286.99 1438.57 3288.35 1436.41 3289.7 1434.25 3290.71 1431.7 3291.39 1428.76 3291.69 1427.4 3291.93 1426.18 3292.11 1425.09 3292.28 1424 3292.37 1422.97 3292.37 1421.98 3292.37 1420.24 3291.96 1418.99 3291.14 1418.24 3290.33 1417.49 3289.03 1417.11 3287.27 1417.11ZM3286.68 1413.87C3288.4 1413.87 3289.92 1414.07 3291.24 1414.48 3292.56 1414.88 3293.77 1415.43 3294.86 1416.13L3298.03 1413.87 3300.68 1414.56 3295.74 1435.99C3295.46 1437.21 3295.26 1438.22 3295.15 1439.01 3295.04 1439.81 3294.99 1440.51 3294.99 1441.12 3294.99 1441.95 3295.16 1442.55 3295.49 1442.92 3295.83 1443.29 3296.32 1443.48 3296.95 1443.48 3297.34 1443.48 3297.73 1443.4 3298.11 1443.25 3298.49 1443.1 3298.91 1442.86 3299.35 1442.53 3299.8 1442.2 3300.29 1441.78 3300.83 1441.27 3301.36 1440.76 3301.97 1440.14 3302.64 1439.42 3302.99 1439.79 3303.35 1440.16 3303.72 1440.52 3304.09 1440.88 3304.45 1441.23 3304.8 1441.58 3303.71 1442.69 3302.72 1443.65 3301.82 1444.44 3300.93 1445.24 3300.06 1445.89 3299.22 1446.41 3298.38 1446.92 3297.56 1447.29 3296.75 1447.52 3295.95 1447.75 3295.11 1447.86 3294.23 1447.86 3292.66 1447.86 3291.44 1447.35 3290.57 1446.34 3289.7 1445.33 3289.26 1443.94 3289.26 1442.17 3289.26 1441.19 3289.41 1440.25 3289.72 1439.36L3289.26 1439.16C3288.15 1440.71 3287.07 1442.03 3286.02 1443.12 3284.98 1444.21 3283.94 1445.11 3282.92 1445.82 3281.89 1446.53 3280.85 1447.04 3279.81 1447.37 3278.76 1447.7 3277.67 1447.86 3276.54 1447.86 3273.94 1447.86 3271.93 1446.93 3270.52 1445.06 3269.1 1443.2 3268.39 1440.49 3268.39 1436.93 3268.39 1434.82 3268.61 1432.79 3269.06 1430.83 3269.51 1428.88 3270.14 1427.05 3270.96 1425.34 3271.78 1423.63 3272.75 1422.07 3273.89 1420.66 3275.02 1419.25 3276.26 1418.05 3277.62 1417.04 3278.97 1416.04 3280.41 1415.26 3281.93 1414.7 3283.46 1414.15 3285.04 1413.87 3286.68 1413.87Z" fill-rule="evenodd"/><text fill="#000000" fill-opacity="0" font-family="Arial,Arial_MSFontService,sans-serif" font-size="33.9907" x="3268.39" y="1443.61">ğ‘</text><path d="M3279.91 1361.92 3281.51 1361.92 3276.67 1383.71C3276.36 1385 3276.15 1386.02 3276.03 1386.79 3275.91 1387.55 3275.85 1388.24 3275.85 1388.85 3275.85 1389.68 3276.02 1390.28 3276.36 1390.65 3276.69 1391.02 3277.2 1391.2 3277.88 1391.2 3278.27 1391.2 3278.66 1391.13 3279.06 1390.98 3279.45 1390.82 3279.87 1390.58 3280.31 1390.26 3280.76 1389.93 3281.25 1389.51 3281.79 1389 3282.32 1388.48 3282.92 1387.87 3283.57 1387.15L3285.79 1389.31C3284.66 1390.46 3283.63 1391.44 3282.7 1392.24 3281.78 1393.03 3280.9 1393.68 3280.07 1394.18 3279.24 1394.68 3278.43 1395.04 3277.63 1395.26 3276.84 1395.48 3275.99 1395.59 3275.1 1395.59 3274.27 1395.59 3273.52 1395.44 3272.86 1395.13 3272.19 1394.83 3271.62 1394.41 3271.14 1393.87 3270.66 1393.34 3270.29 1392.7 3270.03 1391.96 3269.76 1391.22 3269.63 1390.4 3269.63 1389.5 3269.63 1388.78 3269.72 1387.89 3269.9 1386.82 3270.07 1385.75 3270.29 1384.59 3270.57 1383.34 3270.84 1382.08 3271.14 1380.77 3271.47 1379.39 3271.79 1378.02 3272.11 1376.66 3272.43 1375.31 3272.75 1373.95 3273.03 1372.65 3273.28 1371.4 3273.53 1370.14 3273.71 1369 3273.82 1367.98 3273.86 1367.8 3273.89 1367.63 3273.89 1367.47 3273.89 1367.31 3273.89 1367.16 3273.89 1367.03 3273.84 1366.18 3273.54 1365.56 3272.99 1365.16 3272.43 1364.77 3271.44 1364.55 3270.03 1364.51L3270.42 1362.28ZM3299.11 1361.6C3300.72 1361.6 3301.97 1362.13 3302.86 1363.18 3303.74 1364.24 3304.18 1365.63 3304.18 1367.36 3304.18 1367.79 3304.14 1368.25 3304.07 1368.73 3303.99 1369.21 3303.85 1369.67 3303.66 1370.1L3304.12 1370.27C3306.23 1367.37 3308.32 1365.2 3310.38 1363.76 3312.44 1362.32 3314.57 1361.6 3316.78 1361.6 3319.09 1361.6 3320.82 1362.22 3321.96 1363.46 3323.11 1364.71 3323.68 1366.45 3323.68 1368.7 3323.68 1369.37 3323.58 1370.31 3323.39 1371.51 3323.19 1372.71 3322.94 1374.02 3322.63 1375.44 3322.33 1376.85 3322 1378.31 3321.65 1379.8 3321.3 1381.3 3320.98 1382.68 3320.67 1383.94 3320.36 1385.21 3320.11 1386.29 3319.92 1387.18 3319.72 1388.07 3319.62 1388.63 3319.62 1388.85 3319.62 1389.68 3319.78 1390.28 3320.08 1390.65 3320.39 1391.02 3320.88 1391.2 3321.55 1391.2 3321.97 1391.2 3322.38 1391.13 3322.78 1390.98 3323.18 1390.82 3323.6 1390.58 3324.04 1390.26 3324.48 1389.93 3324.96 1389.51 3325.48 1389 3326 1388.48 3326.59 1387.87 3327.25 1387.15L3329.5 1389.31C3328.43 1390.4 3327.45 1391.34 3326.56 1392.12 3325.66 1392.91 3324.8 1393.55 3323.96 1394.07 3323.12 1394.58 3322.28 1394.96 3321.46 1395.21 3320.63 1395.46 3319.74 1395.59 3318.81 1395.59 3318.02 1395.59 3317.29 1395.44 3316.63 1395.13 3315.96 1394.83 3315.39 1394.41 3314.91 1393.87 3314.43 1393.34 3314.06 1392.7 3313.8 1391.97 3313.54 1391.24 3313.41 1390.44 3313.41 1389.57 3313.41 1388.7 3313.5 1387.68 3313.69 1386.51 3313.87 1385.34 3314.15 1384.06 3314.52 1382.67 3314.91 1381.25 3315.28 1379.89 3315.62 1378.59 3315.95 1377.3 3316.25 1376.1 3316.5 1374.99 3316.75 1373.89 3316.95 1372.91 3317.09 1372.05 3317.23 1371.19 3317.3 1370.47 3317.3 1369.91 3317.3 1368.56 3317.04 1367.56 3316.53 1366.93 3316.02 1366.3 3315.2 1365.98 3314.06 1365.98 3313.41 1365.98 3312.7 1366.15 3311.95 1366.49 3311.2 1366.83 3310.44 1367.3 3309.68 1367.9 3308.91 1368.49 3308.17 1369.2 3307.44 1370.02 3306.71 1370.84 3306.04 1371.71 3305.42 1372.64 3304.81 1373.57 3304.27 1374.54 3303.81 1375.55 3303.34 1376.56 3302.99 1377.57 3302.77 1378.58L3299.11 1395 3292.7 1395 3297.61 1373.67C3297.89 1372.54 3298.1 1371.52 3298.23 1370.63 3298.36 1369.73 3298.42 1369 3298.42 1368.44 3298.42 1366.84 3297.78 1366.05 3296.49 1366.05 3296.1 1366.05 3295.7 1366.13 3295.3 1366.29 3294.9 1366.46 3294.47 1366.7 3294.02 1367.03 3293.58 1367.36 3293.09 1367.77 3292.57 1368.27 3292.04 1368.77 3291.46 1369.36 3290.8 1370.04L3288.54 1367.91C3289.63 1366.8 3290.63 1365.85 3291.54 1365.05 3292.44 1364.25 3293.3 1363.6 3294.12 1363.09 3294.94 1362.57 3295.75 1362.2 3296.56 1361.96 3297.37 1361.72 3298.22 1361.6 3299.11 1361.6ZM3278.01 1348.74 3284.55 1348.74 3282.95 1355.77 3276.47 1355.77Z" fill-rule="evenodd"/><text fill="#000000" fill-opacity="0" font-family="Arial,Arial_MSFontService,sans-serif" font-size="46.8477" x="3269.63" y="1389.73">ğ‘–ğ‘›</text><path d="M3368.34 1408.63 3423.68 1408.63 3423.68 1414.6 3368.34 1414.6ZM3368.34 1389.98 3423.68 1389.98 3423.68 1395.96 3368.34 1395.96Z" fill-rule="evenodd"/><text fill="#000000" fill-opacity="0" font-family="Arial,Arial_MSFontService,sans-serif" font-size="24.6172" x="3368.34" y="1411.52">=</text><path d="M3481.68 1366.54C3487.26 1366.54 3491.46 1367.76 3494.31 1370.2 3497.15 1372.64 3498.58 1376.18 3498.58 1380.82 3498.58 1382.41 3498.42 1383.87 3498.1 1385.2 3497.79 1386.53 3497.3 1387.85 3496.62 1389.15 3495.95 1390.46 3495.04 1391.86 3493.9 1393.35 3492.77 1394.85 3491.51 1396.37 3490.13 1397.91 3488.75 1399.46 3486.37 1402.02 3482.99 1405.62 3477.3 1411.64 3473.12 1416.89 3470.45 1421.38L3487.39 1421.38C3488.86 1421.38 3490.04 1421.3 3490.94 1421.12 3491.84 1420.94 3492.56 1420.64 3493.09 1420.22 3493.63 1419.8 3494.06 1419.25 3494.38 1418.58 3494.69 1417.9 3495.09 1416.86 3495.57 1415.46L3499.38 1415.46 3498.62 1428.57 3461.65 1428.57 3461.65 1426.42C3462.94 1423.27 3464.67 1420.05 3466.86 1416.76 3469.05 1413.46 3472.15 1409.59 3476.16 1405.12 3479.63 1401.29 3482.13 1398.38 3483.66 1396.41 3485.34 1394.25 3486.59 1392.39 3487.41 1390.82 3488.24 1389.24 3488.83 1387.76 3489.19 1386.37 3489.55 1384.98 3489.73 1383.58 3489.73 1382.17 3489.73 1379.92 3489.37 1377.94 3488.65 1376.22 3487.93 1374.49 3486.83 1373.14 3485.35 1372.15 3483.86 1371.16 3482 1370.67 3479.75 1370.67 3474.15 1370.67 3470.38 1373.78 3468.43 1380.01L3463 1380.01 3463 1371.39C3466.62 1369.68 3470.01 1368.44 3473.17 1367.68 3476.33 1366.92 3479.17 1366.54 3481.68 1366.54Z" fill-rule="evenodd"/><text fill="#000000" fill-opacity="0" font-family="Arial,Arial_MSFontService,sans-serif" font-size="62.0371" x="3461.65" y="1420.82">2</text><text font-family="Calibri,Calibri_MSFontService,sans-serif" font-weight="400" font-size="92" transform="matrix(1 0 0 1 2835.02 1649)">out</text><text font-family="Calibri,Calibri_MSFontService,sans-serif" font-weight="400" font-size="92" transform="matrix(1 0 0 1 2962.21 1649)">-</text><text font-family="Calibri,Calibri_MSFontService,sans-serif" font-weight="400" font-size="92" transform="matrix(1 0 0 1 2990.28 1649)">degree</text><path d="M3284.02 1584.28 3286.72 1584.28 3286.72 1623.54 3288.16 1623.54C3289.14 1623.54 3289.95 1623.44 3290.58 1623.23 3291.33 1622.96 3292.15 1622.5 3293.05 1621.86 3293.95 1621.21 3295.22 1620.13 3296.87 1618.6 3298.25 1617.31 3299.29 1616.22 3299.99 1615.32 3300.7 1614.42 3301.18 1613.6 3301.45 1612.85 3301.69 1612.22 3301.81 1611.59 3301.81 1610.96 3301.81 1610.06 3301.54 1609.36 3300.98 1608.85 3300.43 1608.34 3299.52 1608 3298.26 1607.82L3298.26 1605.62 3317.62 1605.62 3317.62 1607.82C3316.25 1608.09 3314.78 1608.7 3313.22 1609.66 3311.67 1610.62 3310.06 1611.88 3308.42 1613.43L3298.08 1623.23 3311.02 1640.12C3312.52 1642.09 3313.87 1643.55 3315.09 1644.5 3316.3 1645.44 3317.62 1646.06 3319.06 1646.36L3319.06 1648.56 3301.81 1648.56 3301.81 1646.36C3302.59 1646.27 3303.17 1646.1 3303.54 1645.84 3303.92 1645.59 3304.1 1645.16 3304.1 1644.56 3304.1 1644.11 3304.02 1643.67 3303.86 1643.24 3303.69 1642.8 3303.35 1642.21 3302.85 1641.46 3302.34 1640.72 3301.41 1639.41 3300.06 1637.56L3294.71 1630.37C3293.7 1629.02 3292.97 1628.14 3292.54 1627.72 3292.1 1627.3 3291.65 1627 3291.17 1626.82 3290.69 1626.64 3290.04 1626.55 3289.23 1626.55L3286.72 1626.55 3286.72 1637.33C3286.72 1639.91 3286.84 1641.7 3287.08 1642.7 3287.32 1643.7 3287.77 1644.47 3288.45 1644.99 3289.12 1645.51 3290.22 1645.97 3291.75 1646.36L3291.75 1648.56 3273.92 1648.56 3273.92 1646.36C3275.41 1645.97 3276.45 1645.57 3277.04 1645.15 3277.62 1644.73 3278.04 1644.23 3278.3 1643.64 3278.55 1643.06 3278.73 1642.27 3278.83 1641.26 3278.94 1640.26 3278.99 1638.95 3278.99 1637.33L3278.99 1599.73C3278.99 1596.86 3278.97 1594.85 3278.92 1593.71 3278.88 1592.57 3278.76 1591.61 3278.57 1590.81 3278.37 1590.02 3278.1 1589.4 3277.76 1588.95 3277.41 1588.5 3276.95 1588.14 3276.36 1587.87 3275.78 1587.6 3274.72 1587.33 3273.2 1587.06L3273.2 1584.73Z" fill-rule="evenodd"/><text fill="#000000" fill-opacity="0" font-family="Arial,Arial_MSFontService,sans-serif" font-size="64.2832" x="3273.2" y="1640.53">k</text><path d="M3345.13 1637.1C3343.84 1637.1 3342.64 1637.38 3341.53 1637.95 3340.42 1638.52 3339.41 1639.29 3338.49 1640.27 3337.57 1641.25 3336.76 1642.39 3336.05 1643.67 3335.34 1644.96 3334.74 1646.32 3334.25 1647.76 3333.76 1649.2 3333.39 1650.68 3333.14 1652.2 3332.89 1653.71 3332.76 1655.17 3332.76 1656.56 3332.76 1658.92 3333.1 1660.67 3333.76 1661.81 3334.43 1662.96 3335.5 1663.53 3336.99 1663.53 3337.73 1663.53 3338.44 1663.4 3339.13 1663.14 3339.81 1662.88 3340.54 1662.46 3341.3 1661.9 3343.22 1660.39 3344.86 1658.56 3346.21 1656.4 3347.56 1654.24 3348.58 1651.69 3349.25 1648.75 3349.56 1647.39 3349.8 1646.17 3349.97 1645.08 3350.15 1643.99 3350.23 1642.95 3350.23 1641.97 3350.23 1640.23 3349.83 1638.98 3349.01 1638.23 3348.19 1637.48 3346.9 1637.1 3345.13 1637.1ZM3344.54 1633.86C3346.27 1633.86 3347.79 1634.06 3349.11 1634.47 3350.43 1634.87 3351.63 1635.42 3352.72 1636.12L3355.89 1633.86 3358.54 1634.55 3353.6 1655.98C3353.32 1657.2 3353.12 1658.21 3353.02 1659 3352.91 1659.8 3352.85 1660.5 3352.85 1661.11 3352.85 1661.94 3353.02 1662.54 3353.36 1662.91 3353.7 1663.28 3354.18 1663.47 3354.81 1663.47 3355.21 1663.47 3355.59 1663.39 3355.98 1663.24 3356.36 1663.09 3356.77 1662.85 3357.22 1662.52 3357.67 1662.19 3358.16 1661.77 3358.69 1661.26 3359.23 1660.75 3359.83 1660.13 3360.51 1659.41 3360.86 1659.78 3361.22 1660.15 3361.59 1660.51 3361.96 1660.87 3362.32 1661.22 3362.67 1661.57 3361.58 1662.68 3360.58 1663.64 3359.69 1664.43 3358.79 1665.23 3357.93 1665.88 3357.09 1666.4 3356.25 1666.91 3355.43 1667.28 3354.62 1667.51 3353.81 1667.74 3352.97 1667.85 3352.1 1667.85 3350.53 1667.85 3349.31 1667.34 3348.44 1666.33 3347.56 1665.32 3347.13 1663.93 3347.13 1662.16 3347.13 1661.18 3347.28 1660.24 3347.58 1659.34L3347.13 1659.15C3346.01 1660.7 3344.93 1662.02 3343.89 1663.11 3342.84 1664.2 3341.81 1665.1 3340.78 1665.81 3339.75 1666.52 3338.72 1667.03 3337.67 1667.36 3336.63 1667.69 3335.53 1667.85 3334.4 1667.85 3331.81 1667.85 3329.8 1666.92 3328.38 1665.05 3326.96 1663.19 3326.25 1660.48 3326.25 1656.92 3326.25 1654.81 3326.48 1652.77 3326.93 1650.82 3327.37 1648.87 3328 1647.04 3328.82 1645.33 3329.64 1643.61 3330.62 1642.06 3331.75 1640.65 3332.88 1639.24 3334.13 1638.04 3335.48 1637.03 3336.83 1636.03 3338.27 1635.25 3339.8 1634.69 3341.33 1634.14 3342.91 1633.86 3344.54 1633.86Z" fill-rule="evenodd"/><text fill="#000000" fill-opacity="0" font-family="Arial,Arial_MSFontService,sans-serif" font-size="33.9907" x="3326.25" y="1663.6">ğ‘</text><path d="M3344.87 1584.83C3343.65 1584.83 3342.5 1585.1 3341.43 1585.64 3340.37 1586.19 3339.38 1586.94 3338.49 1587.9 3337.6 1588.86 3336.79 1589.99 3336.09 1591.3 3335.38 1592.61 3334.78 1594.02 3334.29 1595.52 3333.8 1597.03 3333.42 1598.6 3333.16 1600.23 3332.9 1601.87 3332.76 1603.51 3332.76 1605.14 3332.76 1607.65 3333.28 1609.5 3334.32 1610.69 3335.35 1611.88 3336.93 1612.47 3339.05 1612.47 3340.22 1612.47 3341.34 1612.18 3342.38 1611.6 3343.43 1611.03 3344.39 1610.25 3345.26 1609.26 3346.13 1608.28 3346.91 1607.13 3347.6 1605.81 3348.29 1604.49 3348.87 1603.08 3349.35 1601.58 3349.83 1600.07 3350.2 1598.52 3350.45 1596.91 3350.7 1595.31 3350.82 1593.75 3350.82 1592.22 3350.82 1589.8 3350.34 1587.96 3349.38 1586.71 3348.42 1585.45 3346.92 1584.83 3344.87 1584.83ZM3374.14 1581.59C3375.71 1581.59 3376.96 1582.12 3377.9 1583.17 3378.84 1584.23 3379.31 1585.64 3379.31 1587.41 3379.31 1588.37 3379.22 1589.44 3379.05 1590.62 3378.87 1591.79 3378.58 1593.11 3378.16 1594.57 3377.33 1597.56 3376.68 1600.18 3376.2 1602.43 3375.72 1604.67 3375.48 1606.32 3375.48 1607.37 3375.48 1608.68 3375.74 1609.65 3376.25 1610.29 3376.76 1610.94 3377.58 1611.26 3378.72 1611.26 3379.74 1611.26 3380.84 1610.88 3382.01 1610.11 3383.17 1609.35 3384.29 1608.36 3385.36 1607.15 3386.43 1605.94 3387.38 1604.59 3388.22 1603.1 3389.06 1601.6 3389.68 1600.13 3390.07 1598.66L3393.67 1582.27 3400.11 1582.27 3395.08 1603.64C3394.81 1604.75 3394.63 1605.74 3394.52 1606.61 3394.41 1607.49 3394.36 1608.23 3394.36 1608.84 3394.36 1609.67 3394.51 1610.27 3394.81 1610.64 3395.12 1611.01 3395.61 1611.19 3396.29 1611.19 3396.7 1611.19 3397.1 1611.12 3397.5 1610.97 3397.89 1610.81 3398.31 1610.57 3398.76 1610.25 3399.2 1609.92 3399.69 1609.5 3400.21 1608.99 3400.74 1608.47 3401.32 1607.86 3401.98 1607.14L3404.24 1609.3C3403.15 1610.41 3402.14 1611.36 3401.23 1612.16 3400.31 1612.96 3399.44 1613.61 3398.61 1614.12 3397.78 1614.63 3396.96 1615.01 3396.14 1615.23 3395.32 1615.46 3394.48 1615.58 3393.6 1615.58 3392.03 1615.58 3390.81 1615.07 3389.92 1614.06 3389.04 1613.04 3388.6 1611.65 3388.6 1609.89 3388.6 1609.43 3388.63 1608.96 3388.7 1608.5 3388.76 1608.03 3388.88 1607.57 3389.06 1607.14L3388.66 1607.01C3386.51 1609.86 3384.41 1612.01 3382.37 1613.44 3380.33 1614.86 3378.21 1615.58 3376 1615.58 3373.69 1615.58 3371.95 1614.97 3370.79 1613.75 3369.62 1612.52 3369.04 1610.77 3369.04 1608.48 3369.04 1607.89 3369.14 1607.07 3369.35 1606.03 3369.55 1604.98 3369.81 1603.81 3370.11 1602.52 3370.42 1601.24 3370.75 1599.89 3371.1 1598.48 3371.45 1597.08 3371.77 1595.73 3372.08 1594.43 3372.38 1593.13 3372.64 1591.95 3372.85 1590.89 3373.05 1589.84 3373.16 1589.01 3373.16 1588.42 3373.16 1586.83 3372.5 1586.04 3371.19 1586.04 3370.78 1586.04 3370.38 1586.12 3369.98 1586.28 3369.59 1586.45 3369.17 1586.69 3368.72 1587.02 3368.28 1587.34 3367.79 1587.76 3367.27 1588.26 3366.75 1588.76 3366.16 1589.35 3365.5 1590.03L3363.28 1587.9C3364.46 1586.72 3365.51 1585.73 3366.43 1584.92 3367.36 1584.12 3368.24 1583.47 3369.07 1582.98 3369.9 1582.49 3370.71 1582.13 3371.52 1581.91 3372.33 1581.7 3373.2 1581.59 3374.14 1581.59ZM3345.49 1581.59C3347.45 1581.59 3349.17 1581.9 3350.64 1582.54 3352.12 1583.17 3353.34 1584.02 3354.32 1585.1 3355.31 1586.18 3356.04 1587.45 3356.53 1588.92 3357.02 1590.38 3357.27 1591.94 3357.27 1593.59 3357.27 1596.91 3356.78 1599.91 3355.8 1602.61 3354.81 1605.3 3353.46 1607.61 3351.72 1609.54 3349.99 1611.47 3347.95 1612.96 3345.61 1614.01 3343.26 1615.05 3340.71 1615.58 3337.97 1615.58 3336.16 1615.58 3334.53 1615.31 3333.09 1614.76 3331.65 1614.21 3330.43 1613.43 3329.43 1612.4 3328.42 1611.38 3327.66 1610.14 3327.12 1608.69 3326.59 1607.24 3326.32 1605.6 3326.32 1603.77 3326.32 1600.67 3326.81 1597.78 3327.78 1595.08 3328.75 1592.39 3330.09 1590.04 3331.8 1588.05 3333.51 1586.05 3335.53 1584.48 3337.87 1583.32 3340.2 1582.17 3342.74 1581.59 3345.49 1581.59ZM3419.13 1573.96 3424.24 1573.96 3422.37 1582.27 3433.5 1582.27 3432.74 1585.91 3421.65 1585.91 3418.32 1599.61C3418.1 1600.53 3417.92 1601.35 3417.78 1602.08 3417.64 1602.81 3417.52 1603.47 3417.43 1604.06 3417.35 1604.65 3417.29 1605.19 3417.25 1605.67 3417.22 1606.15 3417.2 1606.59 3417.2 1607.01 3417.2 1608.32 3417.48 1609.34 3418.02 1610.08 3418.57 1610.82 3419.46 1611.19 3420.7 1611.19 3421.75 1611.19 3422.86 1610.81 3424.04 1610.03 3425.22 1609.26 3426.56 1608.04 3428.07 1606.39L3430.32 1608.68C3429.21 1609.92 3428.15 1610.98 3427.15 1611.85 3426.15 1612.72 3425.17 1613.44 3424.21 1613.99 3423.25 1614.55 3422.3 1614.95 3421.36 1615.2 3420.42 1615.45 3419.46 1615.58 3418.48 1615.58 3415.88 1615.58 3413.95 1614.97 3412.67 1613.75 3411.4 1612.52 3410.76 1610.73 3410.76 1608.35 3410.76 1607.54 3410.82 1606.65 3410.94 1605.68 3411.06 1604.71 3411.23 1603.77 3411.45 1602.85L3415.34 1585.91 3409.71 1585.91 3410.37 1583.39C3411.68 1583.39 3412.7 1583.26 3413.43 1583.01 3414.16 1582.76 3414.77 1582.42 3415.27 1581.98 3415.6 1581.67 3415.92 1581.3 3416.22 1580.85 3416.53 1580.4 3416.83 1579.86 3417.14 1579.23 3417.44 1578.6 3417.76 1577.85 3418.07 1576.99 3418.39 1576.13 3418.74 1575.12 3419.13 1573.96Z" fill-rule="evenodd"/><text fill="#000000" fill-opacity="0" font-family="Arial,Arial_MSFontService,sans-serif" font-size="41.6133" x="3326.32" y="1610.38">ğ‘œğ‘¢ğ‘¡</text><path d="M3472.1 1628.62 3527.45 1628.62 3527.45 1634.59 3472.1 1634.59ZM3472.1 1609.97 3527.45 1609.97 3527.45 1615.95 3472.1 1615.95Z" fill-rule="evenodd"/><text fill="#000000" fill-opacity="0" font-family="Arial,Arial_MSFontService,sans-serif" font-size="24.6172" x="3472.1" y="1631.51">=</text><path d="M3588.64 1586.52 3591.11 1586.52C3590.93 1589.4 3590.84 1593.38 3590.84 1598.47L3590.84 1636.84C3590.84 1638.57 3590.94 1639.88 3591.13 1640.77 3591.33 1641.65 3591.67 1642.37 3592.17 1642.92 3592.66 1643.48 3593.37 1643.91 3594.3 1644.23 3595.23 1644.54 3596.4 1644.78 3597.8 1644.95 3599.21 1645.11 3601.07 1645.22 3603.38 1645.28L3603.38 1648.56 3570.18 1648.56 3570.18 1645.28C3573.5 1645.13 3575.88 1644.93 3577.3 1644.68 3578.72 1644.42 3579.81 1644.04 3580.55 1643.53 3581.3 1643.02 3581.85 1642.3 3582.19 1641.37 3582.54 1640.45 3582.71 1638.93 3582.71 1636.84L3582.71 1600.41C3582.71 1599.21 3582.5 1598.33 3582.08 1597.78 3581.66 1597.22 3581.05 1596.95 3580.24 1596.95 3579.28 1596.95 3577.92 1597.44 3576.15 1598.43 3574.39 1599.42 3572.2 1600.78 3569.59 1602.52L3567.62 1599.06Z" fill-rule="evenodd"/><text fill="#000000" fill-opacity="0" font-family="Arial,Arial_MSFontService,sans-serif" font-size="62.0371" x="3567.62" y="1640.81">1</text></g></svg>