<svg width="4041" height="751" xmlns="http://www.w3.org/2000/svg" xmlns:xlink="http://www.w3.org/1999/xlink" xml:space="preserve" overflow="hidden"><defs><clipPath id="clip0"><rect x="281" y="859" width="4041" height="751"/></clipPath></defs><g clip-path="url(#clip0)" transform="translate(-281 -859)"><path d="M0 0 290.566 95.5766" stroke="#000000" stroke-width="13.75" stroke-miterlimit="8" fill="none" fill-rule="evenodd" transform="matrix(-1 0 0 1 1051.57 1113)"/><path d="M346 987 472.108 1271.29" stroke="#000000" stroke-width="13.75" stroke-miterlimit="8" fill="none" fill-rule="evenodd"/><path d="M0 0 283.136 62.8801" stroke="#000000" stroke-width="13.75" stroke-miterlimit="8" fill="none" fill-rule="evenodd" transform="matrix(1 0 0 -1 475 1270.88)"/><path d="M0 0 222.361 295.656" stroke="#000000" stroke-width="13.75" stroke-miterlimit="8" fill="none" fill-rule="evenodd" transform="matrix(-1 0 0 1 694.361 976)"/><path d="M635 982.5C635 946.325 664.325 917 700.5 917 736.674 917 766 946.325 766 982.5 766 1018.67 736.674 1048 700.5 1048 664.325 1048 635 1018.67 635 982.5Z" stroke="#000000" stroke-width="10.3125" stroke-miterlimit="8" fill="#00CC99" fill-rule="evenodd"/><text fill="#FFFFFF" font-family="Calibri,Calibri_MSFontService,sans-serif" font-weight="400" font-size="83" transform="matrix(1 0 0 1 678.625 1010)">b</text><path d="M992 1112C992 1075.55 1021.55 1046 1058 1046 1094.45 1046 1124 1075.55 1124 1112 1124 1148.45 1094.45 1178 1058 1178 1021.55 1178 992 1148.45 992 1112Z" stroke="#000000" stroke-width="10.3125" stroke-miterlimit="8" fill="#00CC99" fill-rule="evenodd"/><text fill="#FFFFFF" font-family="Calibri,Calibri_MSFontService,sans-serif" font-weight="400" font-size="83" transform="matrix(1 0 0 1 1040.48 1140)">c</text><path d="M698 1220C698 1184.1 727.549 1155 764 1155 800.451 1155 830 1184.1 830 1220 830 1255.9 800.451 1285 764 1285 727.549 1285 698 1255.9 698 1220Z" stroke="#000000" stroke-width="10.3125" stroke-miterlimit="8" fill="#00CC99" fill-rule="evenodd"/><text fill="#FFFFFF" font-family="Calibri,Calibri_MSFontService,sans-serif" font-weight="400" font-size="83" transform="matrix(1 0 0 1 742.508 1247)">d</text><path d="M412 1278C412 1241.55 441.549 1212 478 1212 514.451 1212 544 1241.55 544 1278 544 1314.45 514.451 1344 478 1344 441.549 1344 412 1314.45 412 1278Z" stroke="#000000" stroke-width="10.3125" stroke-miterlimit="8" fill="#00CC99" fill-rule="evenodd"/><text fill="#FFFFFF" font-family="Calibri,Calibri_MSFontService,sans-serif" font-weight="400" font-size="83" transform="matrix(1 0 0 1 458.556 1306)">g</text><path d="M286 970C286 933.549 315.549 904 352 904 388.451 904 418 933.549 418 970 418 1006.45 388.451 1036 352 1036 315.549 1036 286 1006.45 286 970Z" stroke="#000000" stroke-width="10.3125" stroke-miterlimit="8" fill="#00CC99" fill-rule="evenodd"/><text fill="#FFFFFF" font-family="Calibri,Calibri_MSFontService,sans-serif" font-weight="400" font-size="83" transform="matrix(1 0 0 1 339.323 997)">f</text><path d="M1944.74 1496.7 1888 1172" stroke="#000000" stroke-width="13.75" stroke-miterlimit="8" fill="none" fill-rule="evenodd"/><path d="M1473 951 1599.11 1235.29" stroke="#000000" stroke-width="13.75" stroke-miterlimit="8" fill="none" fill-rule="evenodd"/><path d="M0 0 283.136 62.8801" stroke="#000000" stroke-width="13.75" stroke-miterlimit="8" fill="none" fill-rule="evenodd" transform="matrix(1 0 0 -1 1602 1234.88)"/><path d="M0 0 222.361 295.656" stroke="#000000" stroke-width="13.75" stroke-miterlimit="8" fill="none" fill-rule="evenodd" transform="matrix(-1 0 0 1 1821.36 940)"/><path d="M1762 946.5C1762 910.325 1791.33 881 1827.5 881 1863.67 881 1893 910.325 1893 946.5 1893 982.675 1863.67 1012 1827.5 1012 1791.33 1012 1762 982.675 1762 946.5Z" stroke="#000000" stroke-width="10.3125" stroke-miterlimit="8" fill="#00CC99" fill-rule="evenodd"/><text fill="#FFFFFF" font-family="Calibri,Calibri_MSFontService,sans-serif" font-weight="400" font-size="83" transform="matrix(1 0 0 1 1805.66 974)">b</text><path d="M1879 1497C1879 1460.55 1908.55 1431 1945 1431 1981.45 1431 2011 1460.55 2011 1497 2011 1533.45 1981.45 1563 1945 1563 1908.55 1563 1879 1533.45 1879 1497Z" stroke="#000000" stroke-width="10.3125" stroke-miterlimit="8" fill="#00CC99" fill-rule="evenodd"/><text fill="#FFFFFF" font-family="Calibri,Calibri_MSFontService,sans-serif" font-weight="400" font-size="83" transform="matrix(1 0 0 1 1927.38 1525)">c</text><path d="M1825 1184C1825 1148.1 1854.55 1119 1891 1119 1927.45 1119 1957 1148.1 1957 1184 1957 1219.9 1927.45 1249 1891 1249 1854.55 1249 1825 1219.9 1825 1184Z" stroke="#000000" stroke-width="10.3125" stroke-miterlimit="8" fill="#00CC99" fill-rule="evenodd"/><text fill="#FFFFFF" font-family="Calibri,Calibri_MSFontService,sans-serif" font-weight="400" font-size="83" transform="matrix(1 0 0 1 1869.54 1211)">d</text><path d="M1539 1242C1539 1205.55 1568.55 1176 1605 1176 1641.45 1176 1671 1205.55 1671 1242 1671 1278.45 1641.45 1308 1605 1308 1568.55 1308 1539 1278.45 1539 1242Z" stroke="#000000" stroke-width="10.3125" stroke-miterlimit="8" fill="#00CC99" fill-rule="evenodd"/><text fill="#FFFFFF" font-family="Calibri,Calibri_MSFontService,sans-serif" font-weight="400" font-size="83" transform="matrix(1 0 0 1 1585.59 1270)">g</text><path d="M1413 934C1413 897.549 1442.55 868 1479 868 1515.45 868 1545 897.549 1545 934 1545 970.451 1515.45 1000 1479 1000 1442.55 1000 1413 970.451 1413 934Z" stroke="#000000" stroke-width="10.3125" stroke-miterlimit="8" fill="#00CC99" fill-rule="evenodd"/><text fill="#FFFFFF" font-family="Calibri,Calibri_MSFontService,sans-serif" font-weight="400" font-size="83" transform="matrix(1 0 0 1 1466.35 961)">f</text><path d="M2995.74 1509.7 2939 1185" stroke="#000000" stroke-width="13.75" stroke-miterlimit="8" fill="none" fill-rule="evenodd"/><path d="M2524 964 2650.11 1248.29" stroke="#000000" stroke-width="13.75" stroke-miterlimit="8" fill="none" fill-rule="evenodd"/><path d="M0 0 283.136 62.8801" stroke="#000000" stroke-width="13.75" stroke-miterlimit="8" fill="none" fill-rule="evenodd" transform="matrix(1 0 0 -1 2653 1247.88)"/><path d="M0 0 203.996 254.939" stroke="#000000" stroke-width="13.75" stroke-miterlimit="8" fill="none" fill-rule="evenodd" transform="matrix(1 0 0 -1 2446 1502.94)"/><path d="M2380 1493.5C2380 1457.33 2409.55 1428 2446 1428 2482.45 1428 2512 1457.33 2512 1493.5 2512 1529.67 2482.45 1559 2446 1559 2409.55 1559 2380 1529.67 2380 1493.5Z" stroke="#000000" stroke-width="10.3125" stroke-miterlimit="8" fill="#00CC99" fill-rule="evenodd"/><text fill="#FFFFFF" font-family="Calibri,Calibri_MSFontService,sans-serif" font-weight="400" font-size="83" transform="matrix(1 0 0 1 2424.08 1521)">b</text><path d="M2930 1509.5C2930 1473.33 2959.55 1444 2996 1444 3032.45 1444 3062 1473.33 3062 1509.5 3062 1545.67 3032.45 1575 2996 1575 2959.55 1575 2930 1545.67 2930 1509.5Z" stroke="#000000" stroke-width="10.3125" stroke-miterlimit="8" fill="#00CC99" fill-rule="evenodd"/><text fill="#FFFFFF" font-family="Calibri,Calibri_MSFontService,sans-serif" font-weight="400" font-size="83" transform="matrix(1 0 0 1 2978.47 1537)">c</text><path d="M2877 1196.5C2877 1160.33 2906.33 1131 2942.5 1131 2978.67 1131 3008 1160.33 3008 1196.5 3008 1232.67 2978.67 1262 2942.5 1262 2906.33 1262 2877 1232.67 2877 1196.5Z" stroke="#000000" stroke-width="10.3125" stroke-miterlimit="8" fill="#00CC99" fill-rule="evenodd"/><text fill="#FFFFFF" font-family="Calibri,Calibri_MSFontService,sans-serif" font-weight="400" font-size="83" transform="matrix(1 0 0 1 2920.63 1224)">d</text><path d="M2590 1255C2590 1218.55 2619.55 1189 2656 1189 2692.45 1189 2722 1218.55 2722 1255 2722 1291.45 2692.45 1321 2656 1321 2619.55 1321 2590 1291.45 2590 1255Z" stroke="#000000" stroke-width="10.3125" stroke-miterlimit="8" fill="#00CC99" fill-rule="evenodd"/><text fill="#FFFFFF" font-family="Calibri,Calibri_MSFontService,sans-serif" font-weight="400" font-size="83" transform="matrix(1 0 0 1 2636.67 1282)">g</text><path d="M2464 946.5C2464 910.325 2493.55 881 2530 881 2566.45 881 2596 910.325 2596 946.5 2596 982.675 2566.45 1012 2530 1012 2493.55 1012 2464 982.675 2464 946.5Z" stroke="#000000" stroke-width="10.3125" stroke-miterlimit="8" fill="#00CC99" fill-rule="evenodd"/><text fill="#FFFFFF" font-family="Calibri,Calibri_MSFontService,sans-serif" font-weight="400" font-size="83" transform="matrix(1 0 0 1 2517.44 974)">f</text><path d="M0 0 292.634 189.589" stroke="#000000" stroke-width="13.75" stroke-miterlimit="8" fill="none" fill-rule="evenodd" transform="matrix(-1 0 0 1 4247.63 1012)"/><path d="M3540 981 3666.11 1265.29" stroke="#000000" stroke-width="13.75" stroke-miterlimit="8" fill="none" fill-rule="evenodd"/><path d="M0 0 283.136 62.8801" stroke="#000000" stroke-width="13.75" stroke-miterlimit="8" fill="none" fill-rule="evenodd" transform="matrix(1 0 0 -1 3669 1264.88)"/><path d="M0 0 203.996 254.939" stroke="#000000" stroke-width="13.75" stroke-miterlimit="8" fill="none" fill-rule="evenodd" transform="matrix(1 0 0 -1 3462 1519.94)"/><path d="M3396 1510.5C3396 1474.33 3425.55 1445 3462 1445 3498.45 1445 3528 1474.33 3528 1510.5 3528 1546.67 3498.45 1576 3462 1576 3425.55 1576 3396 1546.67 3396 1510.5Z" stroke="#000000" stroke-width="10.3125" stroke-miterlimit="8" fill="#00CC99" fill-rule="evenodd"/><text fill="#FFFFFF" font-family="Calibri,Calibri_MSFontService,sans-serif" font-weight="400" font-size="83" transform="matrix(1 0 0 1 3440.07 1538)">b</text><path d="M4185 1012.5C4185 976.325 4214.55 947 4251 947 4287.45 947 4317 976.325 4317 1012.5 4317 1048.67 4287.45 1078 4251 1078 4214.55 1078 4185 1048.67 4185 1012.5Z" stroke="#000000" stroke-width="10.3125" stroke-miterlimit="8" fill="#00CC99" fill-rule="evenodd"/><text fill="#FFFFFF" font-family="Calibri,Calibri_MSFontService,sans-serif" font-weight="400" font-size="83" transform="matrix(1 0 0 1 4233.46 1040)">c</text><path d="M3893 1213.5C3893 1177.33 3922.33 1148 3958.5 1148 3994.67 1148 4024 1177.33 4024 1213.5 4024 1249.67 3994.67 1279 3958.5 1279 3922.33 1279 3893 1249.67 3893 1213.5Z" stroke="#000000" stroke-width="10.3125" stroke-miterlimit="8" fill="#00CC99" fill-rule="evenodd"/><text fill="#FFFFFF" font-family="Calibri,Calibri_MSFontService,sans-serif" font-weight="400" font-size="83" transform="matrix(1 0 0 1 3936.62 1241)">d</text><path d="M3606 1272C3606 1235.55 3635.55 1206 3672 1206 3708.45 1206 3738 1235.55 3738 1272 3738 1308.45 3708.45 1338 3672 1338 3635.55 1338 3606 1308.45 3606 1272Z" stroke="#000000" stroke-width="10.3125" stroke-miterlimit="8" fill="#00CC99" fill-rule="evenodd"/><text fill="#FFFFFF" font-family="Calibri,Calibri_MSFontService,sans-serif" font-weight="400" font-size="83" transform="matrix(1 0 0 1 3652.66 1299)">g</text><path d="M3480 963.5C3480 927.325 3509.55 898 3546 898 3582.45 898 3612 927.325 3612 963.5 3612 999.674 3582.45 1029 3546 1029 3509.55 1029 3480 999.674 3480 963.5Z" stroke="#000000" stroke-width="10.3125" stroke-miterlimit="8" fill="#00CC99" fill-rule="evenodd"/><text fill="#FFFFFF" font-family="Calibri,Calibri_MSFontService,sans-serif" font-weight="400" font-size="83" transform="matrix(1 0 0 1 3533.43 991)">f</text></g></svg>